<svg width="41" height="32" viewBox="0 0 41 32" fill="none" xmlns="http://www.w3.org/2000/svg">
<path d="M10.0076 24.5728C9.99144 24.5436 9.95252 24.5078 9.89088 24.4656C9.82924 24.4233 9.74488 24.3745 9.63781 24.3192L9.02443 24.1433C8.97248 24.153 8.87835 24.1383 8.74204 24.0993C8.72584 24.07 8.68692 24.0343 8.62528 23.992C8.58636 23.9563 8.53608 23.9173 8.47444 23.875L8.1239 23.8114C8.0038 23.8015 7.91292 23.7755 7.85128 23.7332C7.80585 23.7202 7.77177 23.7104 7.74905 23.7039C7.61275 23.6648 7.51219 23.5868 7.44737 23.4699L7.506 23.2654C7.50299 23.0187 7.55669 22.8743 7.66711 22.8322C7.6509 22.8029 7.60872 22.7786 7.54057 22.759C7.53088 22.7071 7.54065 22.673 7.56988 22.6568C7.60563 22.6179 7.62676 22.587 7.63327 22.5643L7.69667 22.4719C7.71621 22.4037 7.67085 22.3047 7.5606 22.1747C7.58666 22.0838 7.69223 22.0158 7.87731 21.9705L7.88708 21.9364C7.80924 21.8649 7.75737 21.7886 7.73148 21.7074C7.72179 21.6555 7.73164 21.5353 7.76104 21.3471C7.79044 21.1588 7.83612 20.9138 7.89808 20.6119C7.77815 20.43 7.75075 20.2255 7.81589 19.9983C7.83543 19.9302 7.96063 19.7079 8.19147 19.3316C8.14286 19.2439 8.0423 19.1659 7.88979 19.0975C7.85738 19.0391 7.85905 18.9904 7.8948 18.9515L8.14836 18.5816C8.12564 18.5751 8.10785 18.5085 8.09499 18.3819C8.0853 18.33 8.07887 18.2667 8.07569 18.192C8.07251 18.1173 8.0645 18.0167 8.05163 17.8901C8.09389 17.8284 8.14759 17.684 8.21273 17.4568C8.21273 17.4568 8.19653 17.4276 8.16412 17.3692C8.17715 17.3237 8.18375 17.215 8.18391 17.0429C8.21331 16.8547 8.24112 16.6291 8.26734 16.3661C8.29356 16.1032 8.31001 15.8744 8.31669 15.6796C8.34608 15.4913 8.37707 15.3404 8.40964 15.2268C8.45524 15.0678 8.52188 14.964 8.60958 14.9154C8.59989 14.8634 8.51069 14.7887 8.34198 14.6911C8.06936 14.613 7.78205 14.6289 7.48004 14.739L7.01652 15.7125C6.98729 15.7287 6.94669 15.7416 6.89475 15.7513C6.86551 15.7675 6.82167 15.7918 6.7632 15.8242L6.74366 15.8924C6.73714 15.9151 6.72412 15.9605 6.70457 16.0287C6.71426 16.0806 6.72069 16.1439 6.72387 16.2186C6.81474 16.2447 6.90394 16.3194 6.99147 16.4428L6.80607 16.8322C6.71503 16.9782 6.69056 17.1064 6.73266 17.2168L6.46982 17.1046L6.36258 17.2214L6.42572 17.387C6.46782 17.4974 6.48235 17.5753 6.46932 17.6207L5.94742 18.5406L5.93239 18.9788C5.91285 19.047 5.8852 19.1005 5.84946 19.1394L5.73245 19.2903C5.72259 19.4104 5.70623 19.5532 5.68335 19.7187C5.66698 19.8615 5.64735 20.0157 5.62447 20.1813C5.61144 20.2267 5.50262 20.3061 5.29799 20.4196C5.05111 20.5946 4.92767 20.6821 4.92767 20.6821C4.90161 20.773 4.96158 20.864 5.10758 20.955C5.26009 21.0233 5.33634 21.0575 5.33634 21.0575L4.77486 22.6298L4.66762 22.7465C4.63521 22.6881 4.56388 22.5939 4.45363 22.4639L4.2394 22.4394C4.16473 22.4425 4.10468 22.4376 4.05925 22.4246L3.59695 22.1076C3.59695 22.1076 3.545 22.1173 3.4411 22.1367C3.3372 22.1561 3.2739 22.1625 3.25118 22.156C2.94933 22.094 2.74487 22.0354 2.6378 21.9801C2.59888 21.9444 2.54049 21.8907 2.46265 21.8192C2.38481 21.7478 2.29886 21.6616 2.20482 21.5609L2.10259 21.5316C1.96612 21.6646 1.85245 21.718 1.76158 21.692L1.38197 21.4725C1.35274 21.4887 1.3154 21.4903 1.26997 21.4772C1.22453 21.4642 1.17584 21.4626 1.12389 21.4722C0.942147 21.4201 0.874076 21.3146 0.919675 21.1555C1.00737 21.1069 1.11945 21.0161 1.25593 20.8832C1.24624 20.8312 1.27071 20.703 1.32933 20.4986C1.34236 20.4531 1.35539 20.4077 1.36842 20.3622C1.41068 20.3006 1.4562 20.2276 1.50497 20.1432L1.6513 19.8902C1.65781 19.8675 1.67084 19.822 1.69038 19.7539C1.70992 19.6857 1.72462 19.5916 1.73447 19.4715L1.78358 19.043C2.11246 17.9818 2.41839 17.1721 2.70134 16.6141L2.89152 16.3367C2.91106 16.2685 2.91924 16.1971 2.91607 16.1224L2.90654 15.8984C2.91306 15.8757 2.95206 15.8254 3.02355 15.7476C2.99766 15.6664 3.02372 15.5755 3.10172 15.475L3.3162 15.2415C3.32272 15.2187 3.33249 15.1847 3.34551 15.1392C3.35854 15.0938 3.36673 15.0224 3.37007 14.925L3.38985 14.5988C3.39637 14.576 3.47279 14.4382 3.61911 14.1851C3.76544 13.932 3.85321 13.7974 3.88245 13.7812C3.83066 13.6188 3.81295 13.4662 3.82932 13.3234C3.88778 13.291 3.94625 13.2586 4.00471 13.2262C4.06317 13.1938 4.1249 13.15 4.18987 13.0949C4.22896 12.9586 4.20315 12.7914 4.11244 12.5933L5.33312 9.1079C5.39158 9.0755 5.45331 9.03173 5.51828 8.97661C5.60598 8.92799 5.68232 8.87613 5.74729 8.821C5.73109 8.79177 5.68891 8.76738 5.62076 8.74784L5.69441 8.10515C5.75304 7.90069 5.80674 7.75628 5.85552 7.67192L5.85076 7.55992C5.87999 7.54371 5.93035 7.49669 6.00184 7.41885L6.07024 7.18031C6.08327 7.13488 6.08494 7.08618 6.07525 7.03423C6.08828 6.9888 6.09805 6.95472 6.10456 6.932C6.19226 6.88339 6.28973 6.80071 6.39697 6.68394L6.33908 6.11416L6.45633 5.70524C6.49859 5.6436 6.55547 5.57386 6.62696 5.49602C6.69845 5.41818 6.7732 5.32898 6.85121 5.22842C6.85772 5.2057 6.84962 5.19108 6.8269 5.18457C6.83342 5.16185 6.83993 5.13913 6.84645 5.11641C6.86599 5.04826 6.89689 4.98336 6.93915 4.92173C7.00413 4.8666 7.06101 4.79686 7.10978 4.7125C7.06117 4.62481 7.02233 4.50303 6.99326 4.34718L7.15437 3.91396C7.18042 3.82309 7.33961 3.69663 7.63193 3.5346C7.89502 3.38877 8.03475 3.24444 8.05112 3.10162L7.41368 2.62381C7.49168 2.52325 7.57938 2.47464 7.67676 2.47797L7.87244 1.53836C7.83685 1.40523 7.82558 1.31595 7.83861 1.27051C8.09184 1.24478 8.24928 1.25305 8.31092 1.29531C8.35635 1.30834 8.42284 1.37657 8.51037 1.50001C8.57518 1.61694 8.65303 1.68844 8.7439 1.71449C8.80236 1.68209 8.87218 1.65294 8.95337 1.62704C9.05726 1.60766 9.15791 1.59964 9.25529 1.60298C9.2877 1.66145 9.33957 1.73778 9.4109 1.83199C9.51146 1.91 9.60876 1.99937 9.70281 2.10009L9.77597 1.97356L10.034 1.9738C10.1672 1.93822 10.2418 1.93504 10.2581 1.96428C10.3035 1.9773 10.3862 2.07477 10.5061 2.25668C10.6195 2.4613 10.699 2.57013 10.7444 2.58316C10.7898 2.59619 10.9084 2.56871 11.1 2.50072C11.2266 2.48785 11.3272 2.47983 11.4019 2.47666C11.4993 2.48 11.5674 2.49954 11.6063 2.53528L11.7329 2.60845C11.7329 2.60845 11.7848 2.59876 11.8887 2.57938C11.9472 2.54697 11.9991 2.53728 12.0446 2.55031C12.1354 2.57637 12.2278 2.72578 12.3217 2.99856C12.3671 3.01159 12.437 2.98244 12.5312 2.91111C12.6189 2.8625 12.6708 2.85281 12.687 2.88204L13.1638 3.27692C13.2093 3.28995 13.2547 3.30298 13.3002 3.31601C13.3521 3.30632 13.4041 3.29663 13.456 3.28694L13.5678 3.54026L14.2541 3.84768C14.2703 3.87691 14.2865 3.90615 14.3027 3.93538C14.3189 3.96461 14.3464 3.9971 14.3854 4.03285C14.7196 4.15328 14.9938 4.26878 15.208 4.37936L15.7041 4.96416C15.7041 4.96416 15.7138 5.01611 15.7332 5.12001L15.7234 5.15409C15.6778 5.31311 15.749 5.49335 15.9371 5.6948L16.3944 6.15783L16.3065 6.46452L16.3694 6.88822C16.3076 7.01802 16.2311 7.15591 16.1401 7.3019C16.0556 7.42518 15.9678 7.55982 15.8768 7.70582C15.8703 7.72854 15.8784 7.74315 15.9011 7.74967L16.1203 7.62814C16.2372 7.56332 16.3298 7.54069 16.3979 7.56023L16.4563 7.61385C16.4725 7.64308 16.4757 7.71775 16.4658 7.83785C16.456 7.95796 16.4445 8.12675 16.4313 8.34424L16.4846 8.54394L16.3869 8.88471L16.2554 8.95762C16.2422 9.17511 16.221 9.29196 16.1918 9.30816C16.1171 9.31133 16.0294 9.35995 15.9287 9.45399C15.9287 9.45399 15.9449 9.48322 15.9773 9.54169C15.9935 9.57092 16.0697 9.60508 16.206 9.64416L16.1865 9.71232C16.1735 9.75775 16.1182 9.86483 16.0206 10.0335L15.9866 10.0238C15.9638 10.0173 15.907 10.087 15.8159 10.233C15.7249 10.379 15.7021 10.4585 15.7475 10.4715C15.8157 10.4911 15.879 10.4846 15.9375 10.4522C15.9732 10.4133 16.0008 10.3598 16.0204 10.2916C16.0399 10.2235 16.0432 10.2121 16.0302 10.2575L15.8495 10.7589C15.8203 10.7751 15.7699 10.8221 15.6984 10.9C15.6724 10.9909 15.6252 11.1126 15.5569 11.2651C15.5113 11.4241 15.4478 11.6026 15.3664 11.8005L15.1081 12.0584C15.0171 12.2043 14.9309 12.3763 14.8495 12.5743L14.8152 12.8226C14.786 12.8388 14.7681 12.8582 14.7616 12.881C14.7551 12.9037 14.734 12.9345 14.6982 12.9734C14.5908 13.2622 14.4267 13.4487 14.2059 13.5329L14.1668 13.6692C14.1538 13.7147 14.1261 13.7682 14.0839 13.8298C14.0708 13.8753 14.0432 13.9288 14.0009 13.9905C13.8905 14.0326 13.5104 14.3292 12.8606 14.8805L12.5148 14.9288C12.359 14.9579 12.2388 15.0341 12.1543 15.1574C12.1899 15.2905 12.2043 15.4544 12.1976 15.6492C12.152 15.8082 12.0725 15.8715 11.9589 15.8389C11.8226 15.7998 11.7512 15.7916 11.7446 15.8143C11.7251 15.8825 11.7948 15.9394 11.9539 15.985C12.0674 16.0175 12.1047 16.102 12.0656 16.2383L11.9143 16.6374C11.4858 16.5883 11.2618 16.5979 11.2423 16.666C11.2292 16.7115 11.4548 16.8253 11.9188 17.0075C11.8896 17.0237 11.8262 17.1162 11.7286 17.2849L11.8697 17.436L11.8299 18.3465L11.8978 18.6242C11.7062 18.6921 11.5243 18.8121 11.3521 18.984L11.3811 19.1398C11.4752 19.2405 11.5448 19.3834 11.5901 19.5685C11.616 19.6497 11.6175 19.7731 11.5946 19.9386L11.7843 20.1774C11.7713 20.2228 11.755 20.2796 11.7354 20.3478C11.7159 20.4159 11.7077 20.4873 11.7109 20.562C11.6751 20.6009 11.6312 20.7113 11.5791 20.893C11.6277 20.9807 11.6357 21.0813 11.6032 21.1949L11.4563 21.9642C11.4726 21.9934 11.4822 22.0453 11.4854 22.12C11.4886 22.1947 11.4853 22.2921 11.4754 22.4122C11.3292 22.4932 11.2431 22.5791 11.2171 22.67C11.1553 22.7998 11.1812 22.881 11.2948 22.9135C11.3175 22.9201 11.3808 22.9136 11.4847 22.8942L11.3526 23.4833C11.3526 23.4833 11.3913 23.7771 11.4687 24.3648C11.4849 24.394 11.4767 24.4654 11.4441 24.579C11.3725 24.8289 11.2458 24.9278 11.064 24.8757C10.8596 24.8171 10.733 24.7439 10.6844 24.6562C10.6423 24.5458 10.6099 24.4873 10.5872 24.4808C10.4475 24.5391 10.2544 24.5698 10.0076 24.5728ZM12.2233 4.11357C12.259 4.07465 12.2607 4.02595 12.2283 3.96749C12.1959 3.90902 12.1504 3.896 12.092 3.9284C12.0789 3.97384 12.1227 4.03556 12.2233 4.11357ZM7.88402 4.71324L8.04964 4.65009C8.05615 4.62738 8.01072 4.61435 7.91333 4.61101C7.89062 4.6045 7.88084 4.63857 7.88402 4.71324ZM8.21477 5.10311C8.27641 5.14537 8.35433 5.13084 8.44854 5.05951C8.41614 5.00104 8.38857 4.96856 8.36586 4.96204C8.2977 4.9425 8.24734 4.98952 8.21477 5.10311ZM14.4408 7.18342C14.5024 7.22568 14.5803 7.21115 14.6746 7.13982C14.6584 7.11059 14.6275 7.08946 14.5821 7.07643C14.5139 7.05688 14.4668 7.09255 14.4408 7.18342ZM9.80546 11.9023L10.2146 11.7615L10.6772 11.8204L10.7503 11.6939L10.7506 11.4358C10.7798 11.4196 10.8237 11.3953 10.8821 11.3629C10.9633 11.337 11.0591 11.303 11.1695 11.2609C11.2183 11.1765 11.3092 11.1166 11.4424 11.081C11.5075 10.8538 11.636 10.5342 11.828 10.1221C11.854 10.0312 11.8866 9.9176 11.9257 9.7813C11.9875 9.65151 12.0525 9.51035 12.1209 9.35784C12.1566 9.31892 12.1924 9.28 12.2281 9.24108C12.2704 9.17944 12.3159 9.10644 12.3647 9.02209L12.3356 8.86624C12.3162 8.76234 12.3065 8.71039 12.3065 8.71039C12.3033 8.63572 12.318 8.54159 12.3506 8.428C12.3702 8.35985 12.393 8.28034 12.419 8.18947C12.4678 8.10511 12.5198 8.00939 12.5751 7.90232L12.7362 7.46909L12.7558 7.40094C12.8209 7.17376 12.6474 6.96421 12.2353 6.77229L11.8119 6.57711L11.4566 6.40147C11.3657 6.37541 11.2602 6.35746 11.1401 6.3476C11.0492 6.32154 10.9438 6.30359 10.8236 6.29374C10.6743 6.30009 10.5201 6.36649 10.3609 6.49294L10.2975 6.5854C10.1513 6.66642 10.0392 6.75721 9.96122 6.85777C9.95471 6.88049 9.95304 6.92918 9.95621 7.00385C9.98862 7.06231 9.9999 7.15159 9.99004 7.2717L10.0189 7.68563C9.9604 7.71803 9.86619 7.78936 9.73623 7.89961C9.68746 7.98397 9.62733 8.06507 9.55583 8.14291C9.50706 8.22727 9.44367 8.31973 9.36566 8.42029C9.36566 8.42029 9.39966 8.51609 9.46765 8.70768C9.52912 8.92199 9.55986 9.02915 9.55986 9.02915C9.51108 9.11351 9.45095 9.19461 9.37946 9.27245C9.3372 9.33409 9.28842 9.41845 9.23313 9.52552L9.09634 10.0026L8.89615 10.5721L8.86683 10.6744C8.8082 10.8788 8.8194 11.0541 8.90042 11.2003C8.92631 11.2815 8.97492 11.3692 9.04625 11.4634C9.06897 11.4699 9.13553 11.4521 9.24595 11.41C9.33364 11.3614 9.38885 11.3403 9.41157 11.3469C9.47972 11.3664 9.5883 11.545 9.73731 11.8828L9.80546 11.9023ZM13.2554 9.38814C13.3917 9.42723 13.6223 9.30896 13.9472 9.03333C13.8986 8.94564 13.8727 8.86445 13.8695 8.78979L13.5922 8.59962C13.5013 8.57356 13.3682 8.60914 13.1928 8.70636C13.1406 8.8881 13.1615 9.11536 13.2554 9.38814ZM6.90188 8.26699C6.96352 8.30925 7.04144 8.29471 7.13565 8.22339C7.10324 8.16492 7.07568 8.13243 7.05296 8.12592C6.98481 8.10638 6.93445 8.1534 6.90188 8.26699ZM6.84005 11.8265C6.86928 11.8103 6.89041 11.7795 6.90344 11.734C6.92299 11.6659 6.88732 11.6188 6.79645 11.5927C6.75419 11.6543 6.76872 11.7323 6.84005 11.8265ZM9.34719 12.4716C9.38611 12.5074 9.46404 12.4928 9.58097 12.428C9.56476 12.3988 9.52258 12.3744 9.45443 12.3549C9.38628 12.3353 9.35053 12.3742 9.34719 12.4716ZM11.5903 14.2949L11.712 14.2561C11.7251 14.2107 11.7235 14.1733 11.7073 14.1441L11.5903 14.2949ZM7.38356 13.7894C7.4193 13.7505 7.42097 13.7018 7.38857 13.6433C7.37888 13.5914 7.33018 13.5897 7.24249 13.6383C7.22295 13.7064 7.26997 13.7568 7.38356 13.7894ZM9.89998 14.9166C9.96162 14.9589 10.0217 14.9638 10.0801 14.9314C10.1094 14.9152 10.1143 14.8551 10.0949 14.7512C10.0495 14.7382 9.9845 14.7933 9.89998 14.9166ZM10.8421 17.547C10.8779 17.5081 10.8796 17.4594 10.8471 17.4009C10.8309 17.3717 10.7709 17.3668 10.667 17.3861C10.6475 17.4543 10.7058 17.5079 10.8421 17.547ZM8.98952 19.8923C9.03496 19.9053 9.11288 19.8908 9.2233 19.8487C9.3272 19.8293 9.3905 19.8229 9.41322 19.8294L9.4473 19.8392L9.56455 19.4303L9.18495 19.2108C9.15238 19.3244 9.14419 19.3958 9.1604 19.425C9.1604 19.425 9.12624 19.5013 9.05792 19.6538C9.02218 19.6927 8.99127 19.7576 8.96522 19.8485C8.9587 19.8712 8.9668 19.8858 8.98952 19.8923ZM3.20576 18.7133C3.36161 18.6842 3.44931 18.6356 3.46885 18.5674C3.49491 18.4766 3.4382 18.3742 3.29872 18.2605L3.06519 18.046L2.97749 18.0946C2.99687 18.1985 3.02761 18.3057 3.0697 18.4161C3.11831 18.5038 3.16367 18.6028 3.20576 18.7133ZM2.47842 20.6068C2.51416 20.5679 2.51583 20.5192 2.48342 20.4607C2.47373 20.4087 2.42504 20.4071 2.33735 20.4557C2.3178 20.5238 2.36483 20.5742 2.47842 20.6068ZM3.36942 20.7147L3.26719 20.6854C3.28339 20.7147 3.30118 20.7812 3.32056 20.8851L3.36942 20.7147ZM21.5122 27.8717L21.269 27.6913C20.9866 27.5612 20.7238 27.4489 20.4804 27.3545C20.2532 27.2894 20.052 27.2194 19.8768 27.1446L19.5847 27.1346L18.8254 26.6956L18.4894 26.7099L17.5744 26.3L17.0535 26.1875C17.008 26.1745 16.9593 26.1728 16.9074 26.1825L16.7613 26.1775L15.3887 25.5626L15.1306 25.5624C15.0917 25.5266 15.0301 25.4844 14.9457 25.4356C14.8841 25.3933 14.8111 25.3478 14.7267 25.299L14.6049 25.3379C14.566 25.3021 14.4557 25.2582 14.2739 25.2061L14.196 25.2206L13.5826 25.0447C13.2419 24.947 13.1609 24.7148 13.3398 24.3482L13.535 23.9247C13.6033 23.7722 13.6505 23.6505 13.6766 23.5596C13.7092 23.4461 13.7352 23.3552 13.7547 23.287C13.7905 23.2481 13.8522 23.2043 13.9399 23.1557C14.0341 23.0844 14.177 23.0147 14.3686 22.9468L14.3882 22.8786L14.0669 22.7127L14.0719 22.5667C14.1175 22.4076 14.1988 22.2957 14.3157 22.2309C14.5042 22.0882 14.6293 21.952 14.6911 21.8222C14.584 21.7669 14.5305 21.6533 14.5307 21.4812L14.536 21.0771C14.536 21.0771 14.6466 20.7769 14.8679 20.1765L15.0772 20.3472C15.1064 20.331 15.1373 20.2661 15.1699 20.1525L15.2285 19.948C15.1799 19.8603 15.1426 19.7759 15.1167 19.6947L15.1022 19.6168C15.1152 19.5713 15.164 19.487 15.2485 19.3637C15.3331 19.2404 15.3753 19.1788 15.3753 19.1788C15.4014 19.0879 15.3787 18.9954 15.3074 18.9012C15.3335 18.8103 15.3888 18.7032 15.4733 18.5799C15.4733 18.5799 15.4603 18.5393 15.4344 18.4582C15.454 18.39 15.4751 18.3592 15.4978 18.3657C15.5077 18.2456 15.5549 18.1239 15.6394 18.0006C15.7401 17.9066 15.7905 17.8596 15.7905 17.8596L15.82 17.4992C15.8299 17.3791 15.83 17.2931 15.8203 17.2412C15.8171 17.1665 15.8188 17.1178 15.8253 17.0951C15.8383 17.0497 15.9033 16.9945 16.0202 16.9297C16.1372 16.8649 16.2021 16.8098 16.2152 16.7643C16.2152 16.7643 16.212 16.6897 16.2056 16.5403C16.157 16.4526 16.136 16.3974 16.1425 16.3747L16.479 15.8443C16.3784 15.7663 16.3948 15.6234 16.5281 15.4158L16.7476 15.0362C16.7574 14.9161 16.7608 14.8187 16.7576 14.744C16.7771 14.6759 16.7934 14.6191 16.8064 14.5737L17.0114 14.1161L17.2502 13.9265C17.2405 13.8745 17.2325 13.7739 17.2261 13.6245L17.4165 13.0891C17.3875 12.9332 17.3762 12.8439 17.3827 12.8212L17.8214 12.3201C17.8214 12.3201 17.8133 12.3055 17.7971 12.2762C17.8036 12.2535 17.8021 12.2162 17.7924 12.1642C17.8119 12.0961 17.8347 12.0166 17.8608 11.9257C17.9161 11.8186 17.9779 11.6888 18.0462 11.5363L18.0953 11.1079C18.1115 11.1371 18.1831 10.9732 18.31 10.6162L18.3005 10.3922C18.2908 10.3403 18.2778 10.2997 18.2616 10.2705C18.2682 10.2478 18.2747 10.225 18.2812 10.2023C18.3169 10.1634 18.3527 10.1245 18.3884 10.0856C18.4242 10.0466 18.4518 9.9931 18.4714 9.92495L18.8424 8.88811L19.6775 6.36167C19.8693 6.12163 19.9814 5.94481 20.014 5.83123L20.0288 5.65107C20.0418 5.60564 20.0402 5.5683 20.024 5.53907C20.0078 5.50984 20.003 5.48386 20.0095 5.46114L20.0927 5.04245C20.1057 4.99702 20.1869 4.8851 20.3364 4.7067C20.4208 4.75547 20.5165 4.8075 20.6236 4.86279C20.7372 4.89536 20.8443 4.95065 20.9448 5.02866C20.9934 5.11635 21.0761 5.21382 21.1929 5.32106C21.2156 5.32757 21.2741 5.29517 21.3683 5.22384C21.456 5.17523 21.5225 5.15744 21.568 5.17047L21.7333 5.3654C21.8436 5.49536 22.0285 5.62214 22.2881 5.74574C22.3596 5.6679 22.4246 5.61278 22.483 5.58037L22.7654 5.62446C22.8628 5.6278 22.9456 5.63924 23.0137 5.65878L23.1207 5.8001C23.1531 5.85856 23.218 5.88947 23.3154 5.89281L23.6757 5.92237C23.7731 5.9257 23.8445 5.93389 23.8899 5.94692C23.9354 5.95994 23.9695 5.96972 23.9922 5.97623L24.5567 6.3225C24.6087 6.31281 24.6573 6.31448 24.7028 6.32751C24.7774 6.32433 24.8635 6.32441 24.9609 6.32775L25.248 6.48385C25.2447 6.58123 25.2998 6.64621 25.4134 6.67878C25.4361 6.6853 25.5027 6.66751 25.6131 6.62541C25.73 6.5606 25.7933 6.55416 25.803 6.60611C25.803 6.60611 25.8646 6.64837 25.9879 6.73289C26.0464 6.70049 26.113 6.6827 26.1876 6.67952L26.4066 6.81607C26.4455 6.85182 26.4731 6.88431 26.4893 6.91354C26.5282 6.94929 26.559 6.97042 26.5818 6.97693L26.7619 6.99171C26.7489 7.03715 26.765 7.15241 26.8103 7.33749C26.8753 7.28236 26.9013 7.19149 26.8884 7.06487L27.1904 7.04081C27.2293 7.07656 27.2877 7.13018 27.3655 7.20167C27.4434 7.27316 27.5326 7.34791 27.6331 7.42592C27.6201 7.47136 27.6379 7.53792 27.6865 7.62562L27.7887 7.65493L28.0616 7.47502C28.1135 7.46533 28.1736 7.47026 28.2417 7.4898C28.3326 7.51586 28.4267 7.53056 28.5241 7.5339L28.7529 7.63637L28.3134 8.91174C28.1738 8.97004 28.0877 9.05599 28.0551 9.16958L28.011 9.45196L27.4738 11.0681C27.4282 11.2271 27.2805 11.2708 27.0306 11.1992C26.982 11.1115 26.9269 11.0465 26.8652 11.0042C26.7809 10.9554 26.6592 10.9083 26.5001 10.8627C26.3476 10.7943 26.1659 10.7422 25.9549 10.7063C25.9095 10.6933 25.8527 10.677 25.7845 10.6575C25.7229 10.6152 25.6385 10.5664 25.5315 10.5111L25.2345 10.3891L24.6698 10.3009L24.1002 10.1007C24.0548 10.0877 24.0126 10.0633 23.9737 10.0276L23.8472 9.95442C23.6719 9.87958 23.5275 9.82588 23.4139 9.79331C23.3231 9.76725 23.2663 9.75097 23.2436 9.74446C23.1722 9.65024 23.0911 9.59011 23.0003 9.56405C22.9548 9.55103 22.8623 9.57366 22.7226 9.63196C22.583 9.69026 22.4905 9.7129 22.445 9.69987C22.4255 9.76802 22.4011 9.8102 22.3719 9.8264L22.3571 10.0066C22.3668 10.0585 22.3618 10.1186 22.3423 10.1867C22.3293 10.2321 22.3211 10.3036 22.3177 10.4009C22.0645 10.4267 21.8451 10.7203 21.6595 11.2817L21.7861 11.3548L22.0246 11.4232C22.0408 11.4525 22.0359 11.5125 22.0098 11.6034C21.9838 11.6943 21.9123 11.7721 21.7953 11.8369C21.6492 11.9179 21.5761 11.9585 21.5761 11.9585C21.6084 12.189 21.6033 12.4211 21.5608 12.6548C21.5478 12.7002 21.4731 12.7894 21.3366 12.9224C21.2001 13.0553 21.1156 13.1786 21.083 13.2922L21.0442 13.1704L20.9224 13.2093L20.8931 13.3115C20.9255 13.37 21.0099 13.4187 21.1462 13.4578C21.1331 13.5033 21.1169 13.5601 21.0973 13.6282C21.107 13.6802 21.1134 13.7435 21.1166 13.8181C21.1781 14.0325 21.2543 14.1526 21.3451 14.1787L21.613 14.1449C21.6292 14.1741 21.6616 14.2326 21.7102 14.3203C21.788 14.3917 21.8383 14.4308 21.861 14.4373C21.8448 14.408 21.9553 14.3659 22.1923 14.311C22.3902 14.3923 22.5412 14.4233 22.6451 14.4039C22.7585 14.6086 22.8493 14.7206 22.9174 14.7402L23.0537 14.7793L23.3216 14.7454C23.3443 14.7519 23.3816 14.7504 23.4336 14.7407C23.4855 14.731 23.5375 14.7213 23.5894 14.7116L23.8134 14.7021C23.8816 14.7216 23.9481 14.7899 24.0129 14.9068C24.0939 15.0529 24.1458 15.1293 24.1685 15.1358C24.2497 15.1099 24.3617 15.1051 24.5045 15.1215C24.5045 15.1215 24.498 15.1442 24.4849 15.1897C24.5012 15.2189 24.4995 15.2676 24.4799 15.3357C24.4539 15.4266 24.4034 15.5597 24.3286 15.7349C24.283 15.8939 24.213 16.0951 24.1186 16.3385L24.0114 16.4553C24.0146 16.5299 23.9803 16.6922 23.9087 16.9421C23.8729 16.981 23.8274 17.054 23.7721 17.1611C23.7168 17.2682 23.6827 17.3444 23.6697 17.3899L23.6501 17.458C23.6371 17.5035 23.6272 17.6236 23.6206 17.8183L23.5815 17.9546C23.5359 18.1137 23.4513 18.2369 23.3279 18.3245C23.0356 18.4865 22.8667 18.561 22.8213 18.548L22.5439 18.3578C22.4985 18.3448 22.4384 18.3399 22.3637 18.343L22.1495 18.3185C22.1171 18.26 22.0701 18.2096 22.0084 18.1674C21.976 18.1089 21.9177 18.0553 21.8333 18.0065C21.7813 18.0162 21.718 18.0227 21.6434 18.0258C21.5979 18.0128 21.5265 18.0046 21.4291 18.0013L21.0836 17.7916C20.876 17.6583 20.7381 17.5818 20.6699 17.5623L20.3096 17.5327C20.2642 17.5197 20.2302 17.4239 20.2076 17.2454C20.305 17.2487 20.3781 17.2082 20.4269 17.1238L20.4609 17.1336C20.5064 17.1466 20.5745 17.1662 20.6654 17.1922C20.7563 17.2183 20.8439 17.2557 20.9283 17.3045L21.0014 17.1779L21.021 17.1098C21.0405 17.0416 21.0179 16.9491 20.953 16.8322C20.9303 16.8256 20.8849 16.8126 20.8167 16.7931C20.7778 16.7573 20.7162 16.7151 20.6318 16.6663C20.5734 16.6987 20.5246 16.7831 20.4855 16.9194C20.4239 16.8771 20.3394 16.9144 20.2322 17.0311C20.1998 16.9727 20.1105 16.9839 19.9643 17.065L19.8959 17.3035C19.8375 17.3359 19.7692 17.4024 19.6912 17.5029C19.5127 17.5255 19.4071 17.5936 19.3745 17.7072C19.3745 17.7072 19.3907 17.7364 19.4231 17.7948C19.4393 17.8241 19.4409 17.8614 19.4279 17.9068L19.3888 18.0432C19.3693 18.1113 19.3497 18.1795 19.3302 18.2476C19.3106 18.3158 19.2732 18.4034 19.2179 18.5105L19.2811 18.6761C19.1966 18.7994 18.9447 19.0345 18.5256 19.3814L18.5061 19.4496C18.48 19.5405 18.4913 19.6297 18.5399 19.7174C18.6245 19.5942 18.7917 19.4823 19.0418 19.3819C19.1001 19.5216 19.113 19.6482 19.0804 19.7618C19.0739 19.7845 18.8985 19.8817 18.5542 20.0534L18.6221 20.3311L18.7682 20.3361C18.8591 20.3621 18.885 20.4433 18.8459 20.5796C18.7874 20.612 18.7046 20.6866 18.5973 20.8034C18.5258 20.8812 18.4771 20.9656 18.451 21.0564L18.5239 21.188C18.5174 21.2107 18.4069 21.3388 18.1924 21.5724L18.2165 21.8743C18.1839 21.9879 18.0849 22.0332 17.9193 22.0103C17.9355 22.0396 17.9891 22.0672 18.0799 22.0933L18.0847 22.2053C17.997 22.2539 17.932 22.309 17.8898 22.3706C17.8961 22.52 17.9528 22.6223 18.0599 22.6776C18.1735 22.7102 18.2611 22.7476 18.3227 22.7898C18.511 22.8192 18.696 22.86 18.8777 22.9121C19.0595 22.9642 19.2526 23.0196 19.457 23.0782C19.4537 23.1756 19.4975 23.2373 19.5883 23.2634C19.6338 23.2764 19.7653 23.2035 19.983 23.0446C20.1193 23.0837 20.1743 23.2347 20.1481 23.4976L20.2503 23.527C20.2699 23.4588 20.2975 23.4053 20.3333 23.3663C20.5118 23.3438 20.7569 23.3895 21.0684 23.5034L21.4285 23.791C21.422 23.8137 21.5096 23.8512 21.6913 23.9033C21.7822 23.9293 21.8357 23.957 21.8519 23.9862L22.3243 24.011C22.3924 24.0305 22.4557 24.0241 22.5142 23.9917C22.5434 23.9755 22.6262 23.9869 22.7625 24.026C22.9312 24.1236 22.983 24.2859 22.9178 24.5131C22.8918 24.604 22.7893 24.8328 22.6104 25.1994C22.6104 25.1994 22.5812 25.2156 22.5227 25.248C22.487 25.2869 22.4626 25.3291 22.4496 25.3746L22.2053 26.2265C22.2053 26.2265 22.1306 26.2297 21.9813 26.236C22.0491 26.5997 22.0537 26.8837 21.9951 27.0882C21.9625 27.2018 21.8618 27.2958 21.6929 27.3703L21.6681 27.8426C21.5642 27.862 21.5122 27.8717 21.5122 27.8717ZM27.135 8.90575L27.1691 8.91552C27.3054 8.95461 27.4418 8.90767 27.5783 8.7747C27.5362 8.66429 27.4924 8.60257 27.447 8.58954L26.9697 8.71082C27.0118 8.82123 27.0669 8.88621 27.135 8.90575ZM26.3165 9.44548C26.323 9.42276 26.3019 9.36755 26.2533 9.27986C26.2533 9.27986 26.2241 9.29606 26.1656 9.32847L26.3165 9.44548ZM20.8978 8.408L21.1756 8.08201L21.0248 7.965L20.9178 7.82368C20.7554 7.87547 20.6515 7.98087 20.6059 8.1399C20.7161 8.26986 20.8134 8.35922 20.8978 8.408ZM19.3032 10.7535C19.3163 10.7081 19.3179 10.6594 19.3082 10.6075C19.3213 10.562 19.3229 10.5133 19.3133 10.4614L19.0747 10.393L19.0016 10.5195L19.1085 10.6608L19.3032 10.7535ZM17.3389 12.8455C17.3519 12.8001 17.3665 12.792 17.3827 12.8212L17.3389 12.8455ZM18.964 14.1229C19.1297 13.9737 19.1461 13.8309 19.0131 13.6944C18.9839 13.7106 18.9303 13.769 18.8523 13.8695C18.8327 13.9377 18.87 14.0221 18.964 14.1229ZM18.0387 14.2632L18.2194 13.7618L18.1464 13.6303L17.9079 13.5619L17.8445 13.6543C17.8445 13.6543 17.859 13.7323 17.8881 13.8881C17.927 13.9239 17.9075 13.992 17.8295 14.0926C17.8976 14.1121 17.9674 14.169 18.0387 14.2632ZM18.2277 15.2762C18.2407 15.2308 18.257 15.174 18.2765 15.1058C18.296 15.0377 18.327 14.9728 18.3692 14.9111C18.3465 14.9046 18.2913 14.9257 18.2036 14.9743C18.184 15.0424 18.1921 15.1431 18.2277 15.2762ZM22.3364 16.3806L22.3705 16.3904C22.4159 16.4034 22.536 16.4133 22.7308 16.42L22.6093 16.2007C22.5834 16.1195 22.4973 16.1194 22.3512 16.2005C22.3251 16.2913 22.3202 16.3514 22.3364 16.3806ZM18.0245 18.9427C18.0537 18.9265 18.0441 18.8745 17.9954 18.7869C17.95 18.7738 17.9127 18.7754 17.8834 18.7916L18.0245 18.9427ZM17.6096 20.0038C17.655 20.0169 17.7524 20.0202 17.9018 20.0139L17.8777 19.7119C17.7803 19.7086 17.7218 19.741 17.7023 19.8092L17.6096 20.0038ZM16.0413 20.3286C16.0544 20.2832 16.0706 20.2264 16.0902 20.1582C16.1097 20.0901 16.1374 20.0365 16.1731 19.9976C16.1569 19.9684 16.105 19.9781 16.0173 20.0267L16.0413 20.3286ZM15.8604 21.0881C15.8962 21.0491 15.8979 21.0004 15.8654 20.942C15.833 20.8835 15.7762 20.8672 15.6951 20.8931C15.7048 20.9451 15.7599 21.01 15.8604 21.0881ZM14.9822 22.8646C15.0765 22.7932 15.1139 22.7056 15.0945 22.6017L14.9582 22.5626L14.8314 22.7476C14.8638 22.806 14.9141 22.845 14.9822 22.8646ZM19.6493 25.7517C19.6623 25.7063 19.6526 25.6543 19.6202 25.5959C19.604 25.5666 19.5553 25.565 19.4741 25.5909C19.4546 25.659 19.513 25.7126 19.6493 25.7517ZM19.5365 26.5307L20.1792 26.6044L20.1454 26.3365C20.1325 26.2099 20.058 26.127 19.9216 26.088L19.5856 26.1022C19.5661 26.1704 19.5466 26.2386 19.527 26.3067C19.5302 26.3814 19.5334 26.456 19.5365 26.5307ZM27.9146 29.6707L27.7054 29.5C27.5691 29.4609 27.4587 29.417 27.3744 29.3682L27.102 29.032C26.9657 28.9929 26.8845 29.0188 26.8585 29.1097C26.8162 29.1713 26.761 29.1923 26.6928 29.1728L26.4593 28.9583C26.4528 28.981 26.3895 28.9875 26.2694 28.9776C26.2338 28.8445 26.1609 28.7129 26.0506 28.583C26.0506 28.583 25.9873 28.5894 25.8607 28.6023C25.7829 28.5308 25.6759 28.3895 25.5397 28.1783L25.321 27.7837L25.0727 27.7494C25.063 27.6974 25.0452 27.6309 25.0193 27.5497C24.9999 27.4458 24.9805 27.3419 24.9612 27.238C24.9742 27.1926 24.9256 27.1049 24.8153 26.9749L24.8061 26.4928C24.8126 26.4701 24.785 26.4376 24.7234 26.3954C24.6941 26.4116 24.6454 26.4099 24.5773 26.3903C24.5319 26.3773 24.4962 26.3302 24.4703 26.249L24.5051 25.4846C24.5085 25.3872 24.5085 25.3012 24.5054 25.2265C24.5314 25.1356 24.551 25.0675 24.564 25.022L24.5008 24.8564C24.5139 24.811 24.5221 24.7396 24.5254 24.6422C24.5287 24.5448 24.5386 24.4247 24.555 24.2819L24.6041 23.8534C24.6919 23.6327 24.7456 23.4883 24.7652 23.4202C24.7847 23.352 24.7993 23.3439 24.809 23.3959L25.1207 23.3377C25.0429 23.2662 24.9812 23.224 24.9358 23.2109L25.048 22.9481L24.9265 22.7289C24.9364 22.6088 24.9462 22.4887 24.9561 22.3686C24.9952 22.2323 25.0391 22.1219 25.0879 22.0376L25.161 21.911L25.3314 21.9599C25.4321 21.8658 25.502 21.7507 25.5411 21.6144L25.3417 21.4096C25.3612 21.3415 25.384 21.262 25.4101 21.1711C25.4361 21.0802 25.4508 20.9861 25.4542 20.8887C25.5355 20.6908 25.6103 20.5156 25.6787 20.363C25.747 20.2105 25.8055 20.0921 25.8543 20.0077C25.89 19.9688 25.9956 19.9007 26.171 19.8035C26.1224 19.7158 26.0673 19.6509 26.0056 19.6086L26.0545 19.4382C26.1422 19.3896 26.2072 19.3345 26.2494 19.2728C26.3274 19.1723 26.425 19.0036 26.5421 18.7667C26.5713 18.7505 26.6427 18.7587 26.7563 18.7912L26.9851 18.8937C26.9851 18.8937 27.0143 18.8775 27.0728 18.8451L27.0049 18.5675C26.9594 18.5545 26.9221 18.556 26.8929 18.5722C26.7955 18.5689 26.7224 18.6094 26.6736 18.6938C26.4984 18.6189 26.4433 18.4679 26.5085 18.2408L26.9089 17.1017C27.0746 16.9525 27.19 16.7644 27.2551 16.5372L27.2604 16.133C27.2961 16.0941 27.3238 16.0406 27.3433 15.9724C27.3694 15.8815 27.4068 15.7939 27.4556 15.7096L27.7332 15.6417C27.6878 15.6286 27.6456 15.6042 27.6067 15.5685L27.7775 15.1012C27.8002 15.1077 27.8327 15.0801 27.875 15.0185C27.8815 14.9958 27.8362 14.8967 27.7389 14.7213L28.2025 13.7479C28.2902 13.6993 28.3551 13.6442 28.3974 13.5825C28.4884 13.4365 28.5778 13.3392 28.6655 13.2906C28.7824 13.2258 28.8507 13.1593 28.8702 13.0912L28.8557 13.0132C28.8622 12.9905 28.8785 12.9337 28.9045 12.8428C28.9306 12.752 28.9778 12.6303 29.0461 12.4778C29.0656 12.4096 29.0738 12.3382 29.0706 12.2635C29.0967 12.1727 29.1227 12.0818 29.1488 11.9909C29.2465 11.6502 29.4076 11.2169 29.6321 10.6913C29.6548 10.6978 29.6905 10.7449 29.7391 10.8326L29.8073 10.8521C29.83 10.8586 29.8478 10.8392 29.8609 10.7937L29.8611 10.5357L29.8711 10.2435C29.8972 10.1526 29.9573 10.0715 30.0515 10.0002C30.1554 9.98082 30.2659 9.93872 30.3828 9.87391L30.6657 9.40184C30.7599 9.33051 30.9482 9.27388 31.2307 9.23195C31.1916 9.36826 31.2288 9.4527 31.3424 9.48527L31.4106 9.50481C31.5242 9.53738 31.6005 9.48551 31.6396 9.34921L31.6351 8.97913L32.361 8.63409L32.4048 8.60978C32.4502 8.62281 32.5767 8.782 32.7842 9.08735L32.828 9.06304C32.8865 9.03064 32.9222 8.99171 32.9352 8.94628C32.9808 8.78725 32.9744 8.72395 32.9159 8.75635L33.0087 8.56166L33.4176 8.67892L33.6854 8.64509C33.812 8.63222 33.8835 8.64041 33.8997 8.66964L34.0505 8.78665C34.044 8.80937 34.0342 8.84344 34.0212 8.88888C34.0082 8.93432 33.9773 8.99921 33.9285 9.08357L34.0209 9.14696C34.1118 9.17302 34.1816 9.14387 34.2304 9.05951L34.2988 8.82097C34.3118 8.77554 34.3135 8.72684 34.3038 8.6749C34.3168 8.62946 34.3266 8.59538 34.3331 8.57266C34.4663 8.53708 34.5977 8.55019 34.7275 8.612L35.039 8.81194L35.3993 8.8415L35.7255 8.86129C35.7937 8.88083 35.8942 8.95884 36.0272 9.09531C36.0207 9.11803 36.0856 9.14893 36.2219 9.18801L36.6308 9.30527L37.0104 9.52475C37.0266 9.55399 37.0428 9.58322 37.059 9.61245C37.0752 9.64168 37.1028 9.67417 37.1417 9.70992L37.2878 9.71493L37.39 9.74424C37.5263 9.78333 37.6933 10.0156 37.8909 10.441L38.2024 10.641C38.2348 10.6995 38.2639 10.7693 38.2898 10.8505C38.4682 11 38.5654 11.1754 38.5815 11.3766C38.5977 11.4059 38.5765 11.5227 38.5178 11.7272C38.5177 11.8992 38.5614 12.047 38.6489 12.1704C38.6651 12.1996 38.7008 12.2468 38.7559 12.3117C38.811 12.3767 38.9002 12.4515 39.0235 12.536C39.1012 12.7795 39.1156 12.9435 39.0668 13.0278C39.0603 13.0506 38.9499 13.0926 38.7356 13.1541C38.5213 13.2156 38.4109 13.2577 38.4044 13.2804C38.3913 13.3258 38.3831 13.3973 38.3798 13.4946C38.383 13.5693 38.4202 13.6538 38.4916 13.748L38.6715 14.0208C38.6942 14.0273 38.7023 14.042 38.6958 14.0647C38.7282 14.1231 38.7346 14.1864 38.7151 14.2546L38.8318 14.3618L38.6702 15.3112L38.0794 16.9857C38.0502 17.0019 38.021 17.0181 37.9917 17.0343C37.9625 17.0506 37.93 17.0781 37.8943 17.117C37.8682 17.2079 37.8275 17.3069 37.7723 17.414C37.7397 17.5275 37.6892 17.6606 37.6209 17.8131L37.5137 17.9299L37.2849 17.8274C37.2103 17.8306 37.0934 17.8094 36.9344 17.7638C36.8889 17.7507 36.8078 17.6906 36.6911 17.5834C36.5743 17.4761 36.4932 17.416 36.4478 17.403C36.2822 17.3801 36.1021 17.3653 35.9073 17.3586C35.7191 17.3292 35.5194 17.2966 35.3085 17.2607C35.2599 17.173 35.2047 17.108 35.1431 17.0657C35.0911 17.0754 34.997 17.0607 34.8607 17.0216L34.2085 16.724C34.1275 16.5778 34.1065 16.4366 34.1456 16.3003C34.1651 16.2321 34.2659 16.1381 34.4478 16.0181L34.4625 15.838C34.4918 15.8218 34.5129 15.791 34.5259 15.7455C34.539 15.7001 34.5666 15.6465 34.6089 15.5849C34.7164 15.124 34.9165 14.6405 35.2092 14.1344C35.1541 14.0694 35.0893 13.9525 35.0148 13.7836C35.1868 13.7838 35.3946 13.745 35.6382 13.6673L35.6772 13.531L35.5848 13.4676C35.5848 13.4676 35.4744 13.5097 35.2535 13.5939L35.127 13.5208L35.2979 13.0535C35.4018 13.0341 35.4976 13.0001 35.5853 12.9515C35.6244 12.8152 35.6228 12.6918 35.5808 12.5814L35.1082 12.8147L34.8601 12.5223C34.7596 12.4443 34.6103 12.3646 34.4124 12.2832C34.3831 12.2994 34.3344 12.2978 34.2663 12.2782C34.2436 12.2717 34.1917 12.1954 34.1107 12.0492L33.3605 12.3504C33.1332 12.4573 32.9707 12.5951 32.8732 12.7639C32.7369 12.7248 32.6394 12.8075 32.5808 13.0119L32.556 13.4842C32.5299 13.5751 32.4617 13.6416 32.3513 13.6837C32.2507 13.6057 32.2038 13.4693 32.2104 13.2745L32.118 13.2111L32.0107 13.3279C31.9912 13.396 32.0333 13.5065 32.137 13.6591L32.3024 13.8541C32.2633 13.9904 32.2194 14.1007 32.1706 14.1851L32.097 14.8277L31.7898 15.256L31.6725 15.6649L31.3899 15.8789L31.3508 16.0152C31.2726 16.2878 31.1264 16.4548 30.9121 16.5163C31.003 16.5424 31.1084 16.6463 31.2283 16.8283L30.4922 17.7235C30.4953 17.7982 30.4335 18.014 30.3065 18.371L29.5546 20.4787L29.1192 22.6403C29.0996 22.7085 28.9956 22.8139 28.8072 22.9566C28.8234 22.9858 28.8364 23.0264 28.8461 23.0783C28.8785 23.1368 28.9222 23.1985 28.9774 23.2635L28.9481 23.3657L28.612 23.38C28.6055 23.4027 28.6071 23.4401 28.6168 23.492C28.633 23.5212 28.646 23.5618 28.6556 23.6138L28.6652 23.8378C28.5028 23.8896 28.3241 24.0842 28.129 24.4216C28.2133 24.4704 28.2489 24.6035 28.2357 24.821C28.2225 25.0385 28.1721 25.1715 28.0844 25.2202C28.1006 25.2494 28.2223 25.2966 28.4495 25.3617L28.4006 25.5321L28.2593 25.6391C28.2755 25.6683 28.3112 25.7154 28.3663 25.7804C28.4214 25.8454 28.4993 25.9169 28.5998 25.9949C28.5672 26.1085 28.5817 26.2724 28.6432 26.4867L28.7893 26.4917L28.9013 26.487C28.9013 26.487 28.9629 26.5292 29.0862 26.6138L29.1884 26.6431C29.302 26.6757 29.4026 26.6676 29.4903 26.619C29.4968 26.5963 29.5374 26.5834 29.6121 26.5802C29.6706 26.5478 29.6998 26.5316 29.6998 26.5316L29.7096 26.4975C29.6641 26.4845 29.6414 26.478 29.6414 26.478L29.5294 26.4827C29.5586 26.4665 29.596 26.4649 29.6414 26.478L29.8313 26.4587L30.0894 26.4589C30.1121 26.4654 30.1316 26.4833 30.1478 26.5125C30.1413 26.5352 30.1494 26.5499 30.1721 26.5564C30.2403 26.5759 30.3133 26.5354 30.3913 26.4348C30.4498 26.4024 30.4872 26.3148 30.5036 26.172C30.7699 26.1008 30.8674 25.9321 30.7962 25.6659C30.9815 25.4485 31.1149 25.1549 31.1964 24.7849L31.7481 23.2467C31.852 23.2273 31.9624 23.1852 32.0793 23.1204C32.232 23.0166 32.3262 22.9453 32.362 22.9064C32.362 22.9064 32.3506 22.9031 32.3279 22.8966C32.3052 22.8901 32.2452 22.7991 32.148 22.6238C32.1448 22.5491 32.0962 22.4614 32.0021 22.3607L31.2963 22.1214C31.2378 22.1538 31.1859 22.1635 31.1405 22.1505L30.9653 21.9896C30.9426 21.9831 30.9166 21.9879 30.8874 22.0041C30.8874 22.0041 30.876 22.0009 30.8533 21.9944L30.6732 21.9796C30.6504 21.9731 30.6229 21.9406 30.5905 21.8821C30.5743 21.8529 30.5321 21.8285 30.4639 21.809C30.4347 21.8252 30.3519 21.8137 30.2156 21.7746L30.1866 21.6188L30.3086 21.3219L30.3331 21.1076L30.3527 21.0395C30.3787 20.9486 30.4567 20.848 30.5867 20.7378C30.7101 20.6503 30.7784 20.5838 30.7914 20.5383L30.7333 20.2266L30.8941 20.0515L30.8798 19.7155C30.9675 19.6669 31.1331 19.6037 31.3767 19.5261C31.3832 19.5033 31.3622 19.4481 31.3135 19.3604C31.3135 19.3604 31.247 19.3782 31.1138 19.4138L30.9435 19.365L30.9923 19.1946C31.0215 19.1784 31.0508 19.1622 31.08 19.146C31.1158 19.107 31.1482 19.0795 31.1775 19.0633C31.1775 19.0633 31.223 18.9903 31.314 18.8443C31.5283 18.7828 31.6582 18.7586 31.7037 18.7716L31.8788 18.9325C31.9728 19.0332 32.0312 19.0868 32.0539 19.0933L32.2 19.0983C32.252 19.0886 32.312 19.0936 32.3802 19.1131L33.7969 19.4456C33.9267 19.5074 33.9834 19.6097 33.967 19.7525L33.9715 20.1226C34.0235 20.1129 34.168 20.0806 34.405 20.0256C34.5804 19.9284 34.707 19.9155 34.7848 19.987L35.0622 20.1772C35.1142 20.1675 35.1629 20.1692 35.2083 20.1822C35.2537 20.1952 35.3138 20.2002 35.3885 20.197C35.4955 20.2523 35.588 20.3157 35.6658 20.3872C35.7729 20.4425 35.88 20.4977 35.9871 20.553L36.0552 20.5726C36.237 20.6247 36.4188 20.5908 36.6007 20.4708C36.7012 20.5488 36.7076 20.6982 36.6197 20.9188L36.1808 21.6781L36.2098 21.8339C36.213 21.9086 36.2016 21.9913 36.1755 22.0822C36.1072 22.2347 36.0276 22.298 35.9367 22.2719L35.8443 22.2085C35.815 22.2247 35.7939 22.2555 35.7809 22.301C35.7809 22.301 35.7971 22.3302 35.8295 22.3887L35.9658 22.4277C35.9397 22.5186 35.8991 22.6176 35.8438 22.7247C35.8112 22.8383 35.7608 22.9713 35.6924 23.1238C35.6047 23.1724 35.5398 23.2275 35.4975 23.2892L35.5023 23.4012C35.4697 23.5148 35.4241 23.6738 35.3655 23.8783C35.3296 24.0892 35.2774 24.357 35.2089 24.6816C35.1212 24.7302 35.0092 24.7349 34.8729 24.6959C34.834 24.6601 34.7853 24.6584 34.7268 24.6908C34.6683 24.7233 34.6472 24.7541 34.6634 24.7833C34.6958 24.8418 34.7607 24.8727 34.8581 24.876C34.8873 24.8598 34.9182 24.8809 34.9506 24.9394C34.9048 25.2705 34.8461 25.561 34.7744 25.8109C34.7255 26.0673 34.6636 26.2831 34.5888 26.4583L34.3204 27.0083C34.2586 27.1381 34.2001 27.2565 34.1448 27.3636C34.096 27.448 34.0619 27.5242 34.0423 27.5924L33.9203 27.8893C33.8749 27.8763 33.7661 27.8697 33.5941 27.8695C33.4512 27.8531 33.3733 27.8677 33.3603 27.9131C33.3407 27.9813 33.5095 28.0788 33.8664 28.2058L33.8273 28.3421C33.8078 28.4102 33.785 28.4897 33.7589 28.5806C33.7394 28.6488 33.702 28.7364 33.6467 28.8434C33.4678 29.2101 33.3702 29.4648 33.3538 29.6077C33.3408 29.6531 33.305 29.692 33.2466 29.7244C33.2563 29.7764 33.2448 29.8591 33.2122 29.9727L33.1829 30.075C33.079 30.0943 32.9832 30.1283 32.8955 30.1769C32.8793 30.1477 32.8631 30.1185 32.8469 30.0893C32.8307 30.06 32.8145 30.0308 32.7983 30.0016C32.7529 29.9885 32.7009 29.9982 32.6425 30.0306L32.5204 30.3275L32.6129 30.3909C32.6811 30.4105 32.8223 30.3895 33.0366 30.328L33.0121 30.5423L32.7487 30.9462C32.5962 30.8779 32.4404 30.8209 32.2814 30.7753C32.1451 30.7362 32.0234 30.689 31.9163 30.6337L31.5951 30.4679C31.6016 30.4452 31.6503 30.4468 31.7412 30.4729C31.7574 30.5021 31.8094 30.4924 31.897 30.4438L31.9604 30.3514C31.8956 30.2344 31.8097 30.1483 31.7026 30.093C31.5434 30.2195 31.4151 30.281 31.3177 30.2777C31.2593 30.3101 31.2235 30.349 31.2105 30.3945C31.1293 30.4204 31.0044 30.3845 30.8357 30.287C30.7772 30.3194 30.7887 30.1506 30.8702 29.7806L30.9339 29.4301C30.9015 29.3716 30.8398 29.3293 30.749 29.3033C30.6354 29.2707 30.564 29.2625 30.5347 29.2787L30.1303 29.5315C30.1011 29.5478 30.0491 29.5574 29.9745 29.5606C29.9225 29.5703 29.8592 29.5767 29.7845 29.5799C29.7196 29.635 29.6026 29.6999 29.4338 29.7744L29.0198 29.8032C28.929 29.7771 28.8267 29.7478 28.7131 29.7152C28.5995 29.6827 28.46 29.6549 28.2944 29.6321C28.2652 29.6483 28.1986 29.6661 28.0947 29.6854C27.9908 29.7048 27.9308 29.6999 27.9146 29.6707ZM32.2996 11.6774C32.3385 11.7132 32.3872 11.7148 32.4457 11.6824C32.5042 11.65 32.5172 11.6046 32.4848 11.5461C32.4393 11.5331 32.3776 11.5769 32.2996 11.6774ZM31.3297 12.6163C31.3979 12.6358 31.5683 12.5987 31.8411 12.5048C31.7113 12.443 31.6221 12.3682 31.5735 12.2805L31.4179 12.0515C31.3885 12.2398 31.3608 12.3793 31.3347 12.4702C31.3314 12.5676 31.3297 12.6163 31.3297 12.6163ZM37.6582 14.4678C37.6971 14.5036 37.775 14.4891 37.892 14.4242C37.8758 14.395 37.845 14.3739 37.7995 14.3608C37.7314 14.3413 37.6843 14.377 37.6582 14.4678ZM36.7324 15.1243C36.7681 15.0854 36.7698 15.0367 36.7374 14.9783C36.7277 14.9263 36.679 14.9246 36.5913 14.9732C36.5718 15.0414 36.6188 15.0918 36.7324 15.1243ZM35.9469 16.7061L35.981 16.7159C36.1173 16.755 36.2504 16.7194 36.3804 16.6092C36.5167 16.6483 36.6498 16.6127 36.7798 16.5024L36.4493 15.8545L36.1423 16.0246C36.1487 16.1739 36.0835 16.4011 35.9469 16.7061ZM30.8061 15.3427L30.889 15.1821L30.8209 15.1625L30.772 15.3329L30.8061 15.3427ZM30.7913 15.5228L30.8449 15.4645L30.8206 15.4206L30.7231 15.5033L30.7913 15.5228ZM33.1582 20.2582C33.2524 20.1868 33.2866 20.1106 33.2607 20.0294L33.0319 19.9269L32.9635 20.1655L33.1582 20.2582ZM33.0264 20.5892C33.0556 20.573 33.1157 20.5779 33.2066 20.6039L33.2261 20.5358C33.2326 20.5131 33.2245 20.4985 33.2018 20.4919C33.2018 20.4919 33.2051 20.4806 33.2116 20.4579C33.1142 20.4545 33.0525 20.4983 33.0264 20.5892ZM28.3817 19.8105C28.4109 19.7943 28.4353 19.7521 28.4549 19.684C28.4387 19.6547 28.3965 19.6303 28.3283 19.6108C28.3477 19.7147 28.3655 19.7813 28.3817 19.8105ZM27.6015 20.9882L27.6844 20.8275C27.6358 20.7399 27.6181 20.5873 27.6313 20.3698C27.6704 20.2335 27.6104 20.1425 27.4514 20.0969L27.3151 20.0578L27.2419 20.1844C27.2354 20.2071 27.2289 20.2298 27.2224 20.2525C27.2451 20.259 27.2532 20.2736 27.2467 20.2964L27.2514 20.4084C27.2384 20.4538 27.2221 20.5106 27.2026 20.5787C27.1896 20.6242 27.1814 20.6956 27.178 20.793C27.2073 20.7768 27.2787 20.785 27.3923 20.8175L27.6015 20.9882ZM28.0295 21.5534C28.0879 21.521 28.1204 21.4935 28.1269 21.4707C28.1465 21.4026 28.0994 21.3522 27.9859 21.3196C27.9436 21.3813 27.9581 21.4592 28.0295 21.5534ZM32.7601 24.09L32.916 24.061L32.8771 23.9392C32.8479 23.9554 32.83 23.9749 32.8235 23.9976C32.817 24.0203 32.7959 24.0511 32.7601 24.09ZM31.3069 26.3286C31.2192 26.3772 31.1542 26.4323 31.112 26.494C31.0989 26.5394 31.1248 26.6206 31.1896 26.7375L31.3069 26.3286ZM24.8271 24.8762C24.8887 24.9185 24.9666 24.9039 25.0608 24.8326C25.0284 24.7741 25.0009 24.7416 24.9782 24.7351C24.91 24.7156 24.8596 24.7626 24.8271 24.8762ZM30.128 26.8388L30.1671 26.7024C30.1509 26.6732 30.1087 26.6488 30.0406 26.6293L29.9869 26.6877C29.9739 26.7331 29.9755 26.7704 29.9917 26.7997L30.128 26.8388ZM31.9341 27.3566C31.9698 27.3177 31.9715 27.269 31.9391 27.2106C31.9067 27.1521 31.8612 27.1391 31.8028 27.1715C31.7898 27.2169 31.8335 27.2786 31.9341 27.3566ZM24.9965 25.9574C25.1231 25.9445 25.214 25.8845 25.2693 25.7775C25.3051 25.7385 25.3068 25.6898 25.2743 25.6314L25.1721 25.6021L24.9965 25.9574ZM30.1568 27.2527C30.1829 27.1618 30.1732 27.1099 30.1278 27.0968L30.0012 27.0237L29.894 27.1404L30.1568 27.2527ZM29.1817 28.5957C29.2725 28.6218 29.3716 28.5764 29.4788 28.4597L29.4302 28.372C29.2647 28.3491 29.1527 28.3538 29.0942 28.3862C29.1104 28.4155 29.1266 28.4447 29.1428 28.4739C29.159 28.5032 29.172 28.5438 29.1817 28.5957Z" fill="#052930"/>
</svg>
